<?xml version="1.0" encoding="utf-8"?>
<svg width="598px" height="128px" viewBox="0 0 598 128" version="1.1" xmlns:xlink="http://www.w3.org/1999/xlink" xmlns="http://www.w3.org/2000/svg">
  <defs>
    <rect width="598" height="128" id="artboard_1" />
    <clipPath id="clip_1">
      <use xlink:href="#artboard_1" clip-rule="evenodd" />
    </clipPath>
  </defs>
  <g id="Artboard" clip-path="url(#clip_1)">
    <g id="Type-something" transform="translate(27 21)">
      <g id="Discord">
        <path d="M189.792 43.079C189.792 8.23103 241.488 8.23103 241.488 43.079C241.488 77.999 189.792 77.999 189.792 43.079ZM86.112 52.799L98.568 52.799C98.568 59.207 114.336 59.063 114.336 53.159C114.336 49.631 110.16 49.055 105.12 48.767C94.176 47.975 86.976 44.231 86.832 33.287C86.4 11.543 125.568 11.543 125.28 33.287L113.04 33.287C113.04 26.591 99.504 27.167 99.072 33.143C98.784 36.959 102.528 37.751 107.064 38.255C117.072 39.335 126.864 40.631 126.864 53.231C126.864 74.399 85.824 74.975 86.112 52.799ZM133.272 43.007C133.344 60.143 146.304 68.783 159.12 68.711C169.848 68.711 181.152 63.095 183.024 48.839L170.352 48.839C168.984 54.239 164.592 56.975 159.12 56.975C151.488 56.903 146.592 50.423 146.592 43.007C146.592 34.655 151.56 28.967 159.12 28.967C164.52 28.967 168.336 31.271 170.136 36.383L182.808 36.383C180.864 22.919 169.56 17.231 159.12 17.231C146.304 17.231 133.344 25.871 133.272 43.007ZM25.416 17.807L6.408 17.807L6.408 68.207L25.416 68.207C58.248 68.063 58.248 17.951 25.416 17.807ZM74.808 56.903L74.808 29.039L80.712 29.039L80.712 17.807L56.16 17.807L56.16 29.039L62.064 29.039L62.064 56.903L55.656 56.903L55.656 68.207L81.216 68.207L81.216 56.903L74.808 56.903ZM283.896 50.351C296.64 41.711 293.04 17.879 273.24 17.807L251.136 17.807L251.136 68.207L264.024 68.207L264.024 53.375L270.72 53.375L279.36 68.207L293.76 68.207L293.76 66.335L283.896 50.351ZM301.536 17.807L320.544 17.807C353.376 17.951 353.376 68.063 320.544 68.207L301.536 68.207L301.536 17.807ZM273.24 41.783L264.024 41.783L264.024 29.327C265.027 29.327 266.045 29.3191 267.069 29.3112C269.133 29.2951 271.219 29.2789 273.24 29.327C280.584 29.399 280.224 41.783 273.24 41.783ZM228.312 43.079C228.312 24.935 203.04 24.935 203.04 43.079C203.04 61.367 228.312 61.367 228.312 43.079ZM19.296 29.543L25.416 29.543C41.472 29.543 41.472 56.471 25.416 56.471L19.296 56.471L19.296 29.543ZM320.544 29.543L314.424 29.543L314.424 56.471L320.544 56.471C336.6 56.471 336.6 29.543 320.544 29.543Z" />
      </g>
      <g id="Post" fill="#0058AA">
        <path d="M401.832 43.079C401.832 8.23103 453.528 8.23103 453.528 43.079C453.528 77.999 401.832 77.999 401.832 43.079ZM472.176 52.799L459.72 52.799C459.432 74.975 500.472 74.399 500.472 53.231C500.472 40.631 490.68 39.335 480.672 38.255C476.136 37.751 472.392 36.959 472.68 33.143C473.112 27.167 486.648 26.591 486.648 33.287L498.888 33.287C499.176 11.543 460.008 11.543 460.44 33.287C460.584 44.231 467.784 47.975 478.728 48.767C483.768 49.055 487.944 49.631 487.944 53.159C487.944 59.063 472.176 59.207 472.176 52.799ZM367.848 55.319L367.848 68.207L354.96 68.207L354.96 17.807L377.136 17.807C401.256 17.879 401.256 55.319 377.136 55.319L367.848 55.319ZM530.064 68.207L517.32 68.207L517.32 29.327L504.936 29.327L504.936 17.807L542.376 17.807L542.376 29.327L530.064 29.327L530.064 68.207ZM367.848 43.727L377.064 43.727C384.12 43.727 384.552 29.399 377.064 29.327C375.035 29.2787 372.908 29.2952 370.837 29.3113C369.821 29.3192 368.819 29.327 367.848 29.327L367.848 43.727ZM440.352 43.079C440.352 24.935 415.08 24.935 415.08 43.079C415.08 61.367 440.352 61.367 440.352 43.079Z" />
      </g>
    </g>
  </g>
</svg>